<?xml version="1.0" standalone="no"?>
<svg xmlns:xlink="http://www.w3.org/1999/xlink" id="wave" style="transform:rotate(180deg); transition: 0.3s" viewBox="0 0 1440 100" version="1.1" xmlns="http://www.w3.org/2000/svg"><defs><linearGradient id="sw-gradient-0" x1="0" x2="0" y1="1" y2="0"><stop stop-color="rgba(255, 249, 234, 1)" offset="0%"/><stop stop-color="rgba(255, 249, 234, 1)" offset="100%"/></linearGradient></defs><path style="transform:translate(0, 0px); opacity:1" fill="url(#sw-gradient-0)" d="M0,30L34.3,35C68.6,40,137,50,206,53.3C274.3,57,343,53,411,50C480,47,549,43,617,36.7C685.7,30,754,20,823,20C891.4,20,960,30,1029,40C1097.1,50,1166,60,1234,58.3C1302.9,57,1371,43,1440,46.7C1508.6,50,1577,70,1646,66.7C1714.3,63,1783,37,1851,33.3C1920,30,1989,50,2057,48.3C2125.7,47,2194,23,2263,21.7C2331.4,20,2400,40,2469,51.7C2537.1,63,2606,67,2674,58.3C2742.9,50,2811,30,2880,33.3C2948.6,37,3017,63,3086,70C3154.3,77,3223,63,3291,50C3360,37,3429,23,3497,20C3565.7,17,3634,23,3703,26.7C3771.4,30,3840,30,3909,25C3977.1,20,4046,10,4114,5C4182.9,0,4251,0,4320,6.7C4388.6,13,4457,27,4526,31.7C4594.3,37,4663,33,4731,30C4800,27,4869,23,4903,21.7L4937.1,20L4937.1,100L4902.9,100C4868.6,100,4800,100,4731,100C4662.9,100,4594,100,4526,100C4457.1,100,4389,100,4320,100C4251.4,100,4183,100,4114,100C4045.7,100,3977,100,3909,100C3840,100,3771,100,3703,100C3634.3,100,3566,100,3497,100C3428.6,100,3360,100,3291,100C3222.9,100,3154,100,3086,100C3017.1,100,2949,100,2880,100C2811.4,100,2743,100,2674,100C2605.7,100,2537,100,2469,100C2400,100,2331,100,2263,100C2194.3,100,2126,100,2057,100C1988.6,100,1920,100,1851,100C1782.9,100,1714,100,1646,100C1577.1,100,1509,100,1440,100C1371.4,100,1303,100,1234,100C1165.7,100,1097,100,1029,100C960,100,891,100,823,100C754.3,100,686,100,617,100C548.6,100,480,100,411,100C342.9,100,274,100,206,100C137.1,100,69,100,34,100L0,100Z"/></svg>